<svg xmlns="http://www.w3.org/2000/svg"
     viewBox="0 0 484 498"
     role="img"
     aria-labelledby="title desc">
  <title id="title">CityGuide AI discovery mark</title>
  <desc id="desc">
    Vector tracing of the approved CityGuide AI gold discovery symbol.
  </desc>
  <path
    d="M 473 274 L 454 274 L 343 384 L 261 474 L 261 487 L 274 487 L 364 388 L 473 282 Z M 435 274 L 408 274 L 323 358 L 261 425 L 261 454 L 333 375 Z M 387 274 L 337 274 L 336 275 L 329 276 L 311 285 L 301 293 L 289 305 L 289 306 L 287 307 L 272 325 L 266 336 L 262 348 L 262 353 L 261 354 L 261 404 L 280 383 L 280 354 L 281 353 L 282 347 L 285 342 L 285 340 L 289 334 L 302 320 L 302 319 L 315 306 L 330 296 L 339 293 L 368 293 Z M 103 274 L 123 293 L 151 293 L 152 294 L 158 295 L 166 299 L 173 304 L 195 326 L 203 336 L 210 352 L 210 356 L 211 357 L 211 383 L 229 403 L 229 352 L 228 351 L 228 347 L 222 331 L 209 313 L 186 290 L 175 282 L 167 278 L 158 275 L 154 275 L 153 274 Z M 56 274 L 158 375 L 230 454 L 230 425 L 168 358 L 87 277 L 83 274 Z M 10 274 L 133 395 L 217 487 L 230 487 L 230 474 L 148 384 L 37 274 Z M 241 231 L 240 232 L 237 232 L 236 233 L 235 233 L 234 234 L 233 234 L 232 235 L 231 235 L 228 238 L 227 238 L 227 239 L 224 242 L 224 243 L 222 245 L 222 247 L 221 248 L 221 250 L 220 251 L 220 262 L 221 263 L 221 265 L 222 266 L 222 268 L 223 269 L 223 270 L 225 272 L 225 273 L 229 277 L 230 277 L 232 279 L 233 279 L 234 280 L 235 280 L 236 281 L 238 281 L 239 282 L 251 282 L 252 281 L 254 281 L 255 280 L 256 280 L 257 279 L 258 279 L 259 278 L 260 278 L 266 272 L 266 271 L 268 269 L 268 268 L 269 267 L 269 265 L 270 264 L 270 261 L 271 260 L 271 254 L 270 253 L 270 249 L 269 248 L 269 247 L 268 246 L 268 245 L 267 244 L 267 243 L 266 242 L 266 241 L 261 236 L 260 236 L 258 234 L 257 234 L 256 233 L 254 233 L 253 232 L 250 232 L 249 231 Z M 229 110 L 210 131 L 210 134 L 211 135 L 211 155 L 210 156 L 209 164 L 203 177 L 196 186 L 172 210 L 163 216 L 159 217 L 156 219 L 146 220 L 145 221 L 123 220 L 105 238 L 104 238 L 103 240 L 147 240 L 148 239 L 155 239 L 156 238 L 159 238 L 165 236 L 177 230 L 184 225 L 210 199 L 219 187 L 225 175 L 228 166 L 228 161 L 229 160 Z M 261 109 L 261 158 L 262 159 L 263 168 L 267 177 L 267 179 L 272 188 L 285 204 L 308 226 L 315 231 L 328 237 L 334 238 L 335 239 L 343 239 L 344 240 L 388 240 L 368 220 L 345 221 L 344 220 L 335 219 L 324 214 L 316 208 L 298 190 L 288 178 L 284 171 L 284 169 L 281 163 L 281 160 L 280 159 L 280 130 L 261 110 Z M 261 60 L 261 88 L 325 158 L 408 240 L 435 240 L 339 145 Z M 229 60 L 153 144 L 56 240 L 83 240 L 166 158 L 229 89 Z M 229 11 L 122 130 L 10 240 L 36 240 L 143 135 L 230 38 Z M 261 10 L 261 39 L 352 139 L 455 240 L 473 240 L 473 231 L 371 132 Z"
    fill="#D18D26"
    fill-rule="evenodd"
    clip-rule="evenodd"
  />
</svg>
